<svg xmlns="http://www.w3.org/2000/svg" width="19.999" height="20" viewBox="0 0 19.999 20">
  <defs>
    <style>
      .cls-1 {
        fill: #0076d7;
      }
    </style>
  </defs>
  <path id="Detect_Location" data-name="Detect Location" class="cls-1" d="M-9252.833-6467.833v-1.718a7.507,7.507,0,0,1-6.617-6.616h-1.716A.835.835,0,0,1-9262-6477a.833.833,0,0,1,.834-.832h1.716a7.511,7.511,0,0,1,6.617-6.618v-1.715A.833.833,0,0,1-9252-6487a.835.835,0,0,1,.835.834v1.715a7.51,7.51,0,0,1,6.617,6.618h1.716a.831.831,0,0,1,.832.832.833.833,0,0,1-.832.834h-1.716a7.506,7.506,0,0,1-6.617,6.616v1.718a.833.833,0,0,1-.835.832A.831.831,0,0,1-9252.833-6467.833Zm-5-9.168a5.839,5.839,0,0,0,5.832,5.834,5.841,5.841,0,0,0,5.835-5.834,5.839,5.839,0,0,0-5.835-5.832A5.837,5.837,0,0,0-9257.833-6477Zm2.915,0a2.92,2.92,0,0,1,2.917-2.917,2.921,2.921,0,0,1,2.918,2.917,2.921,2.921,0,0,1-2.918,2.917A2.92,2.92,0,0,1-9254.918-6477Zm1.667,0a1.252,1.252,0,0,0,1.25,1.25,1.252,1.252,0,0,0,1.251-1.25,1.252,1.252,0,0,0-1.251-1.248A1.252,1.252,0,0,0-9253.251-6477Z" transform="translate(9262 6487)"/>
</svg>
